<?xml version="1.0" encoding="UTF-8"?>
<svg xmlns="http://www.w3.org/2000/svg" viewBox="120 80 360 360">
  <defs>
    <style>
      .cls-1 { stroke-width: 18.77px; }
      .cls-1, .cls-2 { stroke-linecap: round; }
      .cls-1, .cls-2, .cls-3 { fill: none; stroke: white; stroke-miterlimit: 10; }
      .cls-2 { stroke-width: 18.95px; }
      .cls-3 { stroke-width: 21.06px; }
    </style>
  </defs>
  <circle class="cls-3" cx="377.47" cy="287.03" r="47.3"/>
  <line class="cls-3" x1="259.86" y1="379.86" x2="259.86" y2="327.96"/>
  <path class="cls-3" d="M385.58,233.11c.17-2.62.14-5.29-.13-8.01-2.17-21.96-19.73-39.76-41.66-42.19-28.54-3.16-52.69,19.1-52.69,47,0,3.44.38,6.78,1.07,10.01-24.42,2.09-43.54,22.72-43.2,47.76.35,26.05,22.38,46.64,48.43,46.64h16.22c2.79,0,5.06,2.26,5.06,5.06v49.95"/>
  <polyline class="cls-3" points="313.48 199.81 301.98 181.89 326.34 181.89 273.25 99.23 220.16 181.89 244.52 181.89 196.29 257 222.09 257 172.49 334.23 295.21 334.23"/>
  <path class="cls-3" d="M377.47,386.22v-51.9,51.9Z"/>
  <path class="cls-2" d="M147.81,382.21s161.09-51.79,246.6,81.84"/>
  <path class="cls-2" d="M157.65,417.82s128.67-41.36,196.96,65.36"/>
  <path class="cls-2" d="M177.86,451.89s86.91-27.94,133.04,44.15"/>
  <path class="cls-2" d="M354.11,416.35s8.32-53.78,93.36-30.13"/>
  <path class="cls-1" d="M377.87,441.65s6.03-39.76,67.67-22.27"/>
</svg>